<?xml version="1.0" encoding="UTF-8"?>
<svg version="1.1" viewBox="0 0 2048 2048" width="28" height="28" xmlns="http://www.w3.org/2000/svg">
<path transform="translate(1529,1091)" d="m0 0h14l34 2 32 4 34 7 31 9 25 9 23 10 16 8 21 11 19 12 19 13 18 14 13 11 12 11 8 7 7 8 11 11 9 11 8 9 15 20 12 18 8 13 12 21 13 27 11 28 9 27 8 32 5 29 3 26 1 15v44l-2 26-4 28-6 29-8 29-10 28-10 24-8 16-12 22-13 21-12 17-9 12-9 11-13 15-32 32-11 9-13 11-19 13-11 8-20 12-12 7-19 9-15 7-25 10-28 9-32 8-30 5-29 3-17 1h-30l-31-2-34-5-28-6-28-8-20-7-27-11-23-11-23-13-19-12-14-10-13-10-11-9-12-11-8-7-24-24-7-8-14-17-14-19-10-15-14-24-12-23-10-22-9-24-9-28-7-30-5-30-3-30-1-31 1-28 4-35 5-27 8-32 11-33 11-26 10-21 13-23 12-19 12-17 14-18 12-14 4-5h2l2-4 20-20 8-7 15-13 20-15 17-12 26-16 31-16 29-12 36-12 28-7 28-5 24-3zm98 137-15 3-12 4-14 7-11 8-10 9-10 12-9 16-6 15-3 17v24l2 13-43 29-96 64-5 4h-5l-10-7-19-8-12-3-7-1h-21l-17 3-16 6-16 9-13 12-7 7-9 13-7 14-5 17-2 21 2 20 4 14 5 12 7 12 8 10 10 10 13 9 16 8 17 5 18 2 17-1 19-5 19-9 6-4h5l10 7 114 76 19 13 1 4-2 9-1 18 2 16 4 15 6 14 9 14 11 12 9 8 12 8 16 7 15 4 6 1h29l17-4 16-7 13-8 13-11 8-9 9-14 6-13 4-13 2-12v-23l-4-20-8-19-8-12-8-10-10-9-15-10-16-7-15-4-6-1h-27l-15 3-16 6-12 7-4 3-5-1-10-7-44-29-43-29-12-8-34-23h-2l3-9 1-12v-12l-3-18h2v-2l5-2 14-9 43-29 69-46 13-9 5 2 10 6 13 6 13 4 17 2h12l14-2 17-5 16-8 11-8 12-11 10-13 8-15 6-19 1-7v-29l-4-17-6-15-9-15-11-13-14-11-16-9-18-6-12-2z"/>
<path transform="translate(1497,67)" d="m0 0h15l37 2 33 4 31 6 30 8 35 12 30 13 22 11 24 14 17 11 14 10 16 12 14 12 11 10 8 7 16 16v2h2l7 8 9 10 11 14 15 20 15 23 15 26 15 30 12 30 9 27 8 30 6 30 4 31 2 27v39l-2 30-4 29-6 31-8 30-12 35-13 30-10 19-7 14-10 16-11 17-10 14-10 13-9 11-10 11-7 8-42 42-5 6-8 7-7 7-13 8-9 4-11 3-14 1-14-2-12-4-12-7-12-11-7-10-6-13-3-13v-15l4-17 6-12 10-13 57-57 9-11 9-10 12-17 10-15 10-18 13-27 10-27 7-25 5-24 3-25 1-14v-33l-3-31-4-23-7-28-8-24-10-23-10-20-12-20-12-17-7-9-9-11-11-12-7-8-10-9-15-13-16-12-15-10-22-13-27-13-24-9-23-7-23-5-18-3-22-2h-50l-26 3-26 5-31 9-28 11-16 8-17 9-19 12-11 8-13 10-14 12-7 7-8 7-127 127-5 6-8 7-19 19-5 6-8 7-4 5-6 5-5 5-5 6-7 6-5 6-6 5-6 7-6 5-6 7-7 6-5 6-6 5-6 7-7 6-5 6-6 5-6 7-7 6-5 6-6 5-6 7-6 5-6 7-6 5-6 7-6 5-6 7-6 5-6 7-6 5-6 7-6 5-6 7-6 5-6 7-6 5-6 7h-2l-2 4h-2l-2 4h-2l-2 4h-2l-2 4-28 28-9 11-10 12-9 13-10 15-10 18-8 16-9 21-9 27-6 24-4 21-3 31v38l3 30 6 31 7 25 8 22 9 21 12 22 11 18 12 17 14 17 12 13 8 8v2l4 2v2l4 2 8 8 7 8 7 9 7 14 3 13v19l-4 15-7 13-8 10-8 7-14 8-13 4-6 1h-18l-13-3-16-8-11-9-6-7-26-26-7-8-12-13-11-14-12-16-14-21-12-20-12-22-10-21-13-33-8-24-9-36-5-28-3-23-2-25v-48l3-33 6-36 7-30 9-30 11-29 9-20 8-16 9-17 12-20 8-12 12-17 13-16 9-11 12-13 7-8 452-452 8-7 13-11 18-14 23-16 20-12 18-10 16-8 22-10 26-10 26-8 23-6 31-6 31-4z"/>
<path transform="translate(292,1100)" d="m0 0h23l12 3 15 8 10 8 8 10 6 10 5 15 1 7v14l-4 17-8 15-10 11-7 8-50 50-9 11-11 13-14 20-13 22-9 17-12 28-8 25-6 24-3 16-3 24-1 15v30l2 24 4 26 6 25 7 23 11 27 8 16 9 17 12 19 12 16 11 13 7 8 7 7 5 6 8 7 12 11 13 10 18 13 24 14 17 9 24 10 27 9 29 7 34 5 11 1h40l27-3 23-4 21-5 19-6 24-9 29-14 22-13 10-7 19-14 11-10 8-7 7-7h2v-2l7-6 1-2h2v-2h2v-2h2v-2h2v-2h2v-2h2v-2h2v-2h2v-2h2v-2h2v-2l7-6 1-2h2v-2h2v-2h2v-2h2v-2l4-4h2v-2h2v-2h2v-2h2v-2l4-4h2v-2h2v-2h2v-2h2v-2l7-6 1-2h2v-2h2v-2h2v-2h2v-2h2v-2h2v-2l4-4h2v-2h2v-2l4-4h2v-2h2v-2l7-6 5-6 7-6 1-2h2v-2h2v-2l7-6 1-2h2v-2h2v-2l7-6 1-2h2v-2h2v-2h2v-2h2v-2l8-7 4-5 7-6 59-59 4-5 4-1-1 39 2 36 3 27 5 29 7 30 2 7v6l-172 172h-2v2l-8 7-10 9-14 11-11 9-16 11-17 11-24 14-30 15-27 11-36 12-24 6-31 6-30 4-28 2h-42l-30-2-29-4-34-7-35-10-30-11-29-13-25-13-20-12-15-10-14-10-13-10-13-11-14-12-31-31-9-11-11-13-13-17-18-27-11-19-13-24-14-32-10-28-7-23-7-30-5-29-3-27-1-14v-54l4-39 6-33 8-32 12-36 12-29 11-23 10-18 15-24 9-13 8-11 11-14 12-14 9-10 11-12 52-52 10-7 12-6z"/>
<path transform="translate(1229,692)" d="m0 0h23l12 3 14 7 10 8 30 30v2h2l7 8 11 12 9 11 13 17 12 17 12 19 15 27 13 27 11 28 9 27 9 36 5 27 4 32-1 2-43 10-33 10-27 10-17 7-12 6h-2l-3-41-4-27-6-25-8-26-11-27-11-22-10-17-8-12-11-15-11-13-9-11-35-35-7-10-6-13-3-13v-15l4-16 5-11 8-11 10-10 13-8 12-4z"/>
<path transform="translate(1327,1501)" d="m0 0h8l10 3 8 5 5 5 5 8 3 10v8l-3 10-6 9-8 7-10 4-10 1-12-3-9-6-6-7-4-8-2-7v-7l3-11 4-7 4-5 9-6z"/>
<path transform="translate(1629,1297)" d="m0 0h18l9 4 8 6 6 9 3 10v10l-3 10-6 9-9 7-9 3-11 1-13-4-8-6-5-6-4-8-1-4v-14l4-11 9-10z"/>
<path transform="translate(1633,1706)" d="m0 0h10l10 3 9 6 7 9 3 7 1 5v9l-2 8-6 10-9 8-11 4h-14l-10-4-8-6-7-11-2-6v-15l5-12 5-6 9-6z"/>
</svg>