<?xml version="1.0" standalone="no"?>
<!DOCTYPE svg PUBLIC "-//W3C//DTD SVG 20010904//EN"
 "http://www.w3.org/TR/2001/REC-SVG-20010904/DTD/svg10.dtd">
<svg version="1.0" xmlns="http://www.w3.org/2000/svg"
 width="32" height="32" viewBox="0 0 512.000000 512.000000"
 preserveAspectRatio="xMidYMid meet">

<g transform="translate(0.000000,512.000000) scale(0.100000,-0.100000)"
fill="#000000" stroke="none">
<path d="M1130 5059 c-204 -30 -374 -167 -454 -365 -59 -145 -56 -43 -54
-2239 l3 -2010 29 -60 c43 -87 159 -200 261 -252 164 -84 4 -77 1780 -81 1139
-2 1594 0 1632 8 102 22 172 102 173 197 0 23 -13 74 -30 116 -50 125 -63 198
-57 322 4 86 11 127 32 185 15 41 36 99 46 127 19 51 19 110 17 1986 l-3 1933
-27 42 c-15 22 -49 54 -75 69 l-48 28 -1585 1 c-872 1 -1610 -2 -1640 -7z
m2960 -2094 l0 -1685 -1520 0 -1520 0 2 1613 3 1612 28 51 c18 31 43 59 65 72
l37 22 1453 0 1452 0 0 -1685z m-96 -2137 c-9 -42 -9 -283 0 -326 l8 -32
-1405 0 c-1514 0 -1444 -2 -1518 50 l-29 21 0 160 0 159 1476 0 1476 0 -8 -32z"/>
</g>
</svg>
