<?xml version="1.0" standalone="no"?>
<!DOCTYPE svg PUBLIC "-//W3C//DTD SVG 20010904//EN"
 "http://www.w3.org/TR/2001/REC-SVG-20010904/DTD/svg10.dtd">
<svg version="1.0" xmlns="http://www.w3.org/2000/svg"
 width="32" height="32" viewBox="0 0 512.000000 512.000000"
 preserveAspectRatio="xMidYMid meet">

<g transform="translate(0.000000,512.000000) scale(0.100000,-0.100000)"
fill="#000000" stroke="none">
<path d="M203 5101 c-100 -34 -171 -114 -193 -215 -8 -36 -10 -710 -8 -2356
l3 -2305 21 -46 c31 -66 78 -114 142 -146 l57 -28 2405 -3 c1799 -2 2412 1
2433 9 60 25 57 -65 57 1504 0 1548 2 1477 -49 1505 -27 14 -715 14 -742 0
-45 -25 -49 -52 -49 -340 0 -288 4 -315 49 -340 25 -13 77 -13 102 0 43 24 49
57 49 280 l0 210 220 0 220 0 0 -1315 0 -1315 -220 0 -220 0 0 755 0 755 -29
32 c-24 27 -36 33 -71 33 -35 0 -47 -6 -71 -33 l-29 -32 0 -755 0 -755 -100 0
-100 0 0 1045 c0 1136 2 1087 -55 1113 -18 9 -124 12 -366 12 -369 0 -383 -2
-407 -55 -9 -20 -12 -282 -12 -1070 l0 -1045 -100 0 -100 0 0 695 c0 755 1
738 -55 763 -18 9 -124 12 -366 12 -369 0 -383 -2 -407 -55 -9 -19 -12 -203
-12 -720 l0 -695 -100 0 -100 0 0 415 0 415 -29 32 -29 33 -362 0 -362 0 -29
-33 -29 -32 0 -415 0 -415 -440 0 c-478 0 -483 1 -508 55 -9 20 -12 560 -12
2306 0 2481 -4 2320 55 2347 20 9 339 12 1325 12 l1299 0 3 -367 c3 -350 4
-370 24 -414 31 -66 78 -114 142 -146 l57 -28 368 -3 367 -3 0 -625 c0 -521 2
-630 14 -653 35 -66 137 -66 172 0 21 42 21 1387 0 1427 -18 33 -972 985
-1003 1001 -15 8 -412 11 -1395 11 -1292 -1 -1376 -2 -1425 -19z m3225 -939
c-182 -2 -272 1 -291 9 -54 22 -57 43 -57 336 l0 268 305 -305 305 -305 -262
-3z m452 -2977 l0 -985 -220 0 -220 0 0 985 0 985 220 0 220 0 0 -985z m-1040
-350 l0 -635 -220 0 -220 0 0 635 0 635 220 0 220 0 0 -635z m-1040 -285 l0
-350 -220 0 -220 0 0 350 0 350 220 0 220 0 0 -350z"/>
<path d="M1393 4546 c-27 -23 -28 -29 -33 -137 l-5 -113 -80 -17 c-371 -80
-642 -351 -720 -722 -20 -90 -19 -268 1 -365 68 -331 314 -596 651 -699 80
-24 103 -27 248 -27 145 0 168 3 248 27 342 105 586 369 654 708 l16 79 99 0
c161 0 186 25 174 183 -41 550 -447 997 -993 1092 -47 8 -119 15 -159 15 -63
0 -77 -3 -101 -24z m296 -202 c270 -60 527 -267 659 -529 38 -76 80 -210 88
-280 l7 -55 -442 0 -441 0 0 445 0 445 33 -6 c17 -4 61 -12 96 -20z m-329
-630 l0 -376 29 -29 29 -29 376 0 376 0 -6 -27 c-18 -82 -29 -114 -58 -178
-112 -240 -344 -398 -607 -412 -219 -13 -405 60 -559 218 -77 79 -123 151
-164 262 -29 78 -30 90 -31 232 0 139 2 156 28 230 79 224 276 410 497 469
100 27 90 66 90 -360z"/>
<path d="M604 2170 c-30 -12 -64 -58 -64 -87 0 -32 26 -80 49 -93 27 -14 1985
-14 2012 0 24 13 49 61 49 94 0 14 -13 40 -29 58 l-29 33 -984 2 c-541 1 -993
-2 -1004 -7z"/>
<path d="M4331 2156 c-30 -17 -50 -52 -51 -89 0 -41 57 -97 100 -97 41 0 100
56 100 94 0 80 -80 130 -149 92z"/>
<path d="M568 1660 c-27 -27 -30 -36 -25 -71 7 -50 29 -76 76 -89 47 -13 635
-13 682 0 52 15 74 43 74 97 0 37 -5 49 -28 69 l-28 24 -360 0 -361 0 -30 -30z"/>
<path d="M1713 1666 c-23 -20 -28 -32 -28 -71 0 -39 5 -51 28 -71 64 -55 167
-11 167 71 0 82 -103 126 -167 71z"/>
</g>
</svg>
