<?xml version="1.0" standalone="no"?>
<!DOCTYPE svg PUBLIC "-//W3C//DTD SVG 20010904//EN"
 "http://www.w3.org/TR/2001/REC-SVG-20010904/DTD/svg10.dtd">
<svg version="1.0" xmlns="http://www.w3.org/2000/svg"
 width="40" height="40" viewBox="0 0 512.000000 512.000000"
 preserveAspectRatio="xMidYMid meet">

<g transform="translate(0.000000,512.000000) scale(0.100000,-0.100000)"
fill="#000000" stroke="none">
<path d="M1735 4853 c-420 -57 -777 -371 -890 -783 -39 -139 -45 -345 -16
-488 144 -694 894 -1062 1526 -748 282 140 480 384 562 694 23 86 26 116 26
262 0 147 -3 176 -26 265 -128 480 -558 810 -1046 804 -58 -1 -119 -4 -136 -6z
m360 -223 c528 -136 802 -727 565 -1215 -207 -429 -722 -612 -1149 -410 -237
113 -408 321 -478 585 -24 92 -24 310 1 403 43 161 106 276 215 390 138 144
300 231 498 267 76 14 258 4 348 -20z"/>
<path d="M4325 2529 c-11 -6 -227 -218 -481 -471 l-461 -460 -76 115 c-135
203 -339 395 -553 523 -363 217 -820 292 -1234 202 -606 -131 -1093 -572
-1283 -1163 -44 -138 -66 -251 -76 -402 -9 -140 -2 -177 42 -203 31 -19 62
-20 1298 -20 l1267 0 -45 -136 c-47 -146 -49 -176 -10 -212 45 -42 59 -39 389
68 172 57 347 116 388 131 l75 29 693 693 692 692 0 45 0 44 -263 264 c-242
242 -266 264 -303 268 -21 2 -48 -1 -59 -7z m215 -404 l165 -165 -60 -60 -60
-60 -167 167 -168 168 57 57 c32 32 60 58 63 58 3 0 79 -74 170 -165z m-2360
120 c409 -92 747 -320 964 -650 29 -44 61 -95 70 -114 l18 -33 -149 -152 -148
-151 -44 -135 c-24 -74 -48 -141 -54 -148 -7 -9 -263 -12 -1241 -10 l-1231 3
3 55 c12 212 110 481 251 692 237 353 613 592 1036 657 95 15 437 6 525 -14z
m1793 -1017 l-468 -468 -167 167 -168 168 467 467 468 468 167 -167 168 -168
-467 -467z m-663 -568 c0 -7 -350 -123 -356 -118 -3 3 83 271 111 347 4 10 43
-22 125 -104 66 -66 120 -122 120 -125z"/>
</g>
</svg>
